<?xml version="1.0" standalone="no"?>
<!DOCTYPE svg PUBLIC "-//W3C//DTD SVG 20010904//EN"
 "http://www.w3.org/TR/2001/REC-SVG-20010904/DTD/svg10.dtd">
<svg version="1.0" xmlns="http://www.w3.org/2000/svg"
 width="300.000000pt" height="176.000000pt" viewBox="0 0 300.000000 176.000000"
 preserveAspectRatio="xMidYMid meet">

<g transform="translate(0.000000,176.000000) scale(0.100000,-0.100000)"
fill="#000000" stroke="none">
<path d="M760 1666 c-13 -17 -6 -36 15 -36 19 0 26 27 11 39 -10 8 -17 7 -26
-3z"/>
<path d="M660 1651 c0 -15 6 -21 21 -21 14 0 19 5 17 17 -5 26 -38 29 -38 4z"/>
<path d="M853 1654 c-8 -21 13 -42 28 -27 13 13 5 43 -11 43 -6 0 -13 -7 -17
-16z"/>
<path d="M570 1630 c0 -15 5 -20 18 -18 9 2 17 10 17 18 0 8 -8 16 -17 18 -13
2 -18 -3 -18 -18z"/>
<path d="M942 1623 c2 -10 10 -18 18 -18 8 0 16 8 18 18 2 12 -3 17 -18 17
-15 0 -20 -5 -18 -17z"/>
<path d="M480 1600 c0 -15 5 -20 18 -18 9 2 17 10 17 18 0 8 -8 16 -17 18 -13
2 -18 -3 -18 -18z"/>
<path d="M616 1594 c-81 -19 -172 -66 -239 -122 -232 -192 -292 -524 -140
-781 54 -90 103 -143 187 -199 87 -58 175 -91 269 -99 l67 -6 0 125 0 125 -51
6 c-69 8 -135 43 -194 102 -238 235 -56 636 276 613 175 -13 302 -135 334
-320 l6 -38 124 0 125 0 0 28 c-1 60 -32 172 -71 251 -59 120 -146 204 -270
264 -52 25 -118 50 -147 56 -72 15 -204 12 -276 -5z"/>
<path d="M1033 1594 c-8 -21 13 -42 28 -27 13 13 5 43 -11 43 -6 0 -13 -7 -17
-16z"/>
<path d="M400 1566 c-13 -17 -6 -36 15 -36 19 0 26 27 11 39 -10 8 -17 7 -26
-3z"/>
<path d="M1117 1553 c-14 -13 -6 -33 13 -33 13 0 20 7 20 20 0 19 -20 27 -33
13z"/>
<path d="M320 1501 c0 -11 4 -22 8 -25 14 -9 35 12 29 28 -9 23 -37 20 -37 -3z"/>
<path d="M1185 1490 c-4 -7 -3 -16 3 -22 14 -14 45 -2 40 15 -6 16 -34 21 -43
7z"/>
<path d="M252 1433 c2 -10 10 -18 18 -18 8 0 16 8 18 18 2 12 -3 17 -18 17
-15 0 -20 -5 -18 -17z"/>
<path d="M1250 1409 c0 -14 5 -19 17 -17 26 5 29 38 4 38 -15 0 -21 -6 -21
-21z"/>
<path d="M195 1370 c-4 -6 -1 -17 5 -26 15 -18 42 0 33 22 -6 16 -29 19 -38 4z"/>
<path d="M1310 1344 c-9 -10 -10 -18 -2 -26 12 -12 32 -2 32 17 0 21 -16 26
-30 9z"/>
<path d="M153 1284 c-8 -21 13 -42 28 -27 13 13 5 43 -11 43 -6 0 -13 -7 -17
-16z"/>
<path d="M1345 1260 c-4 -7 -3 -16 3 -22 14 -14 45 -2 40 15 -6 16 -34 21 -43
7z"/>
<path d="M116 1195 c-3 -9 1 -18 10 -22 19 -7 39 11 30 26 -10 16 -33 13 -40
-4z"/>
<path d="M1375 1170 c-4 -7 -3 -16 3 -22 14 -14 45 -2 40 15 -6 16 -34 21 -43
7z"/>
<path d="M97 1106 c-8 -21 16 -39 31 -24 8 8 9 15 1 25 -15 17 -25 17 -32 -1z"/>
<path d="M1390 1070 c0 -13 7 -20 20 -20 13 0 20 7 20 20 0 13 -7 20 -20 20
-13 0 -20 -7 -20 -20z"/>
<path d="M93 1014 c-7 -19 11 -39 26 -30 16 10 13 33 -4 40 -9 3 -18 -1 -22
-10z"/>
<path d="M95 920 c-4 -7 -3 -16 3 -22 14 -14 45 -2 40 15 -6 16 -34 21 -43 7z"/>
<path d="M1470 692 c0 -144 2 -161 19 -176 11 -10 31 -16 48 -14 26 3 28 6 25
43 -2 22 -6 100 -8 173 l-5 132 -40 0 -39 0 0 -158z"/>
<path d="M115 830 c-8 -14 3 -30 21 -30 8 0 14 9 14 20 0 21 -24 28 -35 10z"/>
<path d="M2130 785 c0 -16 -6 -25 -15 -25 -10 0 -15 -10 -15 -29 0 -16 6 -31
15 -35 12 -4 15 -23 15 -85 0 -93 11 -111 70 -111 29 0 42 5 50 19 16 31 12
49 -12 53 -21 3 -23 8 -23 63 0 55 2 60 23 63 17 3 22 10 22 32 0 22 -5 29
-22 32 -15 2 -24 11 -26 26 -3 18 -10 22 -43 22 -35 0 -39 -3 -39 -25z"/>
<path d="M968 765 c-3 -3 6 -62 21 -130 l26 -125 42 0 c75 0 73 5 73 -157 l0
-144 43 1 c23 0 58 -3 77 -6 27 -4 42 -1 60 14 23 19 25 26 25 117 0 112 -10
128 -80 123 l-40 -3 -3 43 c-3 37 -6 42 -27 42 -13 0 -26 4 -29 8 -3 4 4 50
15 101 11 51 18 99 15 106 -3 8 -18 13 -38 12 l-33 -2 -14 -82 c-8 -46 -17
-83 -21 -83 -4 0 -11 30 -15 68 -9 87 -18 102 -59 102 -18 0 -35 -2 -38 -5z
m287 -435 c0 -49 -2 -55 -22 -58 -21 -3 -23 0 -23 51 0 58 5 69 30 65 11 -3
15 -17 15 -58z"/>
<path d="M1255 748 c-49 -43 -55 -163 -11 -215 40 -47 137 -41 171 11 21 31
24 129 7 172 -24 57 -117 74 -167 32z m90 -113 c0 -53 -2 -60 -20 -60 -17 0
-20 8 -23 49 -4 60 3 79 25 74 15 -3 18 -14 18 -63z"/>
<path d="M1600 652 c0 -105 2 -121 20 -137 14 -13 28 -16 52 -10 18 3 59 6 91
5 l57 -1 0 125 c0 125 0 126 -24 132 -55 13 -61 6 -66 -91 -4 -75 -8 -90 -22
-93 -16 -3 -18 6 -18 86 0 98 -3 102 -61 102 l-29 0 0 -118z"/>
<path d="M1857 763 c-4 -3 -7 -62 -7 -130 l0 -123 45 0 44 0 3 87 c3 74 6 88
21 91 15 3 17 -6 17 -87 l0 -91 45 0 45 0 0 114 c0 91 -3 118 -16 130 -18 18
-75 21 -91 5 -8 -8 -17 -8 -31 0 -23 12 -65 15 -75 4z"/>
<path d="M2331 754 c-48 -34 -63 -113 -35 -184 19 -46 55 -70 106 -70 62 0 78
9 78 44 0 31 0 31 -52 31 -42 0 -53 4 -56 17 -3 14 7 17 60 20 62 3 63 4 66
33 6 47 -15 100 -43 113 -37 17 -97 15 -124 -4z m87 -82 c3 -18 -1 -22 -22
-22 -19 0 -26 5 -26 18 0 39 43 43 48 4z"/>
<path d="M2561 742 c-80 -79 -27 -242 79 -242 64 0 87 14 83 47 -4 27 -7 28
-50 24 -42 -3 -62 7 -63 31 0 4 28 8 63 10 l62 3 3 39 c7 80 -27 116 -109 116
-31 0 -47 -7 -68 -28z m97 -70 c3 -16 -2 -22 -17 -22 -24 0 -35 15 -27 36 9
23 40 13 44 -14z"/>
<path d="M2777 764 c-4 -4 -7 -63 -7 -131 l0 -123 45 0 44 0 3 88 c3 87 3 87
31 90 24 3 27 7 27 44 0 39 -1 40 -27 34 -33 -8 -39 -8 -78 0 -17 3 -33 2 -38
-2z"/>
<path d="M147 743 c-3 -5 -2 -15 3 -22 10 -17 43 -6 38 12 -6 15 -34 22 -41
10z"/>
<path d="M190 651 c0 -15 6 -21 21 -21 14 0 19 5 17 17 -5 26 -38 29 -38 4z"/>
<path d="M252 587 c-15 -17 0 -39 21 -31 21 8 22 18 3 33 -10 8 -16 8 -24 -2z"/>
<path d="M317 523 c-14 -13 -6 -33 13 -33 13 0 20 7 20 20 0 19 -20 27 -33 13z"/>
<path d="M390 450 c0 -15 5 -20 18 -18 9 2 17 10 17 18 0 8 -8 16 -17 18 -13
2 -18 -3 -18 -18z"/>
<path d="M1413 448 c-37 -18 -49 -62 -29 -110 14 -37 14 -43 1 -58 -17 -19
-20 -46 -6 -55 5 -3 7 -21 4 -40 -5 -31 -3 -36 23 -46 41 -15 129 -6 154 16
27 24 27 80 1 95 -11 5 -40 10 -65 10 -61 0 -67 16 -9 23 59 6 86 35 81 86 -2
21 2 36 10 39 6 2 12 15 12 28 0 23 -2 24 -77 23 -43 0 -88 -5 -100 -11z m82
-97 c-3 -11 -12 -21 -20 -21 -19 0 -29 38 -14 56 11 13 14 13 27 1 9 -9 11
-23 7 -36z m15 -161 c0 -5 -16 -10 -35 -10 -19 0 -35 5 -35 10 0 6 16 10 35
10 19 0 35 -4 35 -10z"/>
<path d="M473 414 c-8 -21 13 -42 28 -27 13 13 5 43 -11 43 -6 0 -13 -7 -17
-16z"/>
<path d="M562 373 c2 -10 10 -18 18 -18 8 0 16 8 18 18 2 12 -3 17 -18 17 -15
0 -20 -5 -18 -17z"/>
<path d="M660 364 c-9 -10 -10 -18 -2 -26 12 -12 32 -2 32 17 0 21 -16 26 -30
9z"/>
<path d="M1012 268 c-30 -30 0 -75 42 -64 29 7 40 31 26 57 -12 21 -50 25 -68
7z"/>
</g>
</svg>
